# xmcd CD Database Entry
#
# Track frame offsets:
# 150
# 16879
# 44858
# 63272
# 83430
# 93860
# 116243
# 143289
# 166566
# 187654
# 209912
# 235070
# 262863
#
# Disc length: 3832 seconds
#
# Revision: 2
# Processed by: cddbd v1.5.2PL0 Copyright (c) Steve Scherf et al.
# Submitted via: tcd 2.0b
#
DISCID=9c0ef60d
DTITLE=regret
DYEAR=1900
DGENRE=
TTITLE0=トラック 1
TTITLE1=Last regrets
TTITLE2=そよ風の行方
TTITLE3=I Will .....
TTITLE4=新しい恋のかたち
TTITLE5=美しく生きたい
TTITLE6=Sweet -恋しくて-
TTITLE7=季節の雫
TTITLE8=Dream to new world
TTITLE9=One small day
TTITLE10=Cross talk
TTITLE11=Last regrets X'mas style
TTITLE12=トラック 13
EXTD=
EXTT0=
EXTT1=
EXTT2=
EXTT3=
EXTT4=
EXTT5=
EXTT6=
EXTT7=
EXTT8=
EXTT9=
EXTT10=
EXTT11=
EXTT12=
PLAYORDER=
